<svg width="22" height="36" viewBox="0 0 22 36" fill="none" xmlns="http://www.w3.org/2000/svg">
<g id="css-file 1" clip-path="url(#clip0_1_689)">
<path id="Vector" d="M15.3005 4.31512H4.10521C2.46968 4.31512 1.13848 5.64516 1.13848 7.27732V18.2308H0.848663C0.188553 18.2308 -0.34668 18.7647 -0.34668 19.4244V26.6632C-0.34668 27.3229 0.188553 27.8569 0.848663 27.8569H1.13848V29.1843C1.13848 30.8182 2.46974 32.1464 4.10521 32.1464H19.3807C21.0153 32.1464 22.3466 30.8181 22.3466 29.1843V11.3257L15.3005 4.31512ZM5.36294 24.8192C5.70606 24.8192 6.08647 24.7447 6.31066 24.6555L6.48185 25.5415C6.2732 25.6462 5.80307 25.7582 5.19169 25.7582C3.45331 25.7582 2.55808 24.6783 2.55808 23.2481C2.55808 21.5351 3.78169 20.5816 5.30339 20.5816C5.89285 20.5816 6.34026 20.7008 6.54157 20.8046L6.31066 21.706C6.07918 21.6087 5.75849 21.5196 5.35571 21.5196C4.45273 21.5196 3.75163 22.0636 3.75163 23.1808C3.75163 24.1861 4.34843 24.8192 5.36294 24.8192ZM19.3807 30.3323H4.10521C3.47193 30.3323 2.95618 29.8174 2.95618 29.1843V27.8569H17.1961C17.8563 27.8569 18.3916 27.3229 18.3916 26.6632V19.4244C18.3916 18.7647 17.8563 18.2308 17.1961 18.2308H2.95618V7.27732C2.95618 6.64587 3.47193 6.13097 4.10521 6.13097L14.6208 6.12006V10.0011C14.6208 11.1346 15.542 12.0553 16.6782 12.0553L20.4858 12.0444L20.5287 29.1843C20.5287 29.8174 20.0139 30.3323 19.3807 30.3323ZM8.48374 23.5756C7.64811 23.2854 7.10334 22.8233 7.10334 22.0936C7.10334 21.2365 7.81941 20.5816 9.00573 20.5816C9.57247 20.5816 9.99075 20.7007 10.2887 20.8345L10.0353 21.7507C9.83402 21.6542 9.47587 21.5122 8.98342 21.5122C8.49097 21.5122 8.25226 21.7361 8.25226 21.9963C8.25226 22.3165 8.5356 22.4585 9.18478 22.704C10.0727 23.0316 10.4904 23.4938 10.4904 24.2016C10.4904 25.043 9.84125 25.7582 8.46131 25.7582C7.88682 25.7582 7.31967 25.609 7.03633 25.4524L7.2677 24.5145C7.57347 24.671 8.04361 24.8266 8.52831 24.8266C9.05042 24.8266 9.32648 24.6109 9.32648 24.2833C9.32654 23.9705 9.08783 23.7912 8.48374 23.5756ZM12.5142 23.5756C11.6787 23.2854 11.1338 22.8233 11.1338 22.0936C11.1338 21.2365 11.85 20.5816 13.0362 20.5816C13.6035 20.5816 14.0207 20.7007 14.3196 20.8345L14.0659 21.7507C13.8645 21.6542 13.5065 21.5122 13.014 21.5122C12.5215 21.5122 12.2828 21.7361 12.2828 21.9963C12.2828 22.3165 12.5661 22.4585 13.2154 22.704C14.1033 23.0316 14.5212 23.4938 14.5212 24.2016C14.5212 25.043 13.872 25.7582 12.492 25.7582C11.9174 25.7582 11.3502 25.609 11.0669 25.4524L11.2984 24.5145C11.604 24.671 12.0742 24.8266 12.5589 24.8266C13.081 24.8266 13.3571 24.6109 13.3571 24.2833C13.357 23.9705 13.1183 23.7912 12.5142 23.5756Z" fill="#2A7AE4"/>
</g>
<defs>
<clipPath id="clip0_1_689">
<rect width="22" height="35.5385" fill="white" transform="translate(0 0.461548)"/>
</clipPath>
</defs>
</svg>
