<?xml version="1.0" encoding="UTF-8" standalone="no"?>
<svg
   xmlns:dc="http://purl.org/dc/elements/1.1/"
   xmlns:cc="http://creativecommons.org/ns#"
   xmlns:rdf="http://www.w3.org/1999/02/22-rdf-syntax-ns#"
   xmlns:svg="http://www.w3.org/2000/svg"
   xmlns="http://www.w3.org/2000/svg"
   xmlns:sodipodi="http://sodipodi.sourceforge.net/DTD/sodipodi-0.dtd"
   xmlns:inkscape="http://www.inkscape.org/namespaces/inkscape"
   width="4096"
   height="4096"
   viewBox="0 0 4096 4096"
   version="1.1"
   id="svg8"
   sodipodi:docname="udemy-logo.svg"
   inkscape:export-filename="G:\Users\suitedoalex\sites\udemy-logo-0.png"
   inkscape:export-xdpi="96"
   inkscape:export-ydpi="96"
   inkscape:version="0.92.2 (5c3e80d, 2017-08-06)">
  <metadata
     id="metadata14">
    <rdf:RDF>
      <cc:Work
         rdf:about="">
        <dc:format>image/svg+xml</dc:format>
        <dc:type
           rdf:resource="http://purl.org/dc/dcmitype/StillImage" />
        <dc:title></dc:title>
      </cc:Work>
    </rdf:RDF>
  </metadata>
  <defs
     id="defs12" />
  <sodipodi:namedview
     pagecolor="#ffffff"
     bordercolor="#666666"
     borderopacity="1"
     objecttolerance="10"
     gridtolerance="10"
     guidetolerance="10"
     inkscape:pageopacity="0"
     inkscape:pageshadow="2"
     inkscape:window-width="1600"
     inkscape:window-height="837"
     id="namedview10"
     showgrid="false"
     inkscape:measure-start="0,0"
     inkscape:measure-end="0,0"
     inkscape:zoom="0.11313708"
     inkscape:cx="2639.9179"
     inkscape:cy="2337.7036"
     inkscape:window-x="-8"
     inkscape:window-y="-8"
     inkscape:window-maximized="1"
     inkscape:current-layer="svg8" />
  <g
     id="g6"
     inkscape:export-xdpi="5.2613177"
     inkscape:export-ydpi="5.2613177"
     transform="matrix(6.3471458,0,0,6.3471458,223.35899,1529.9846)"
     style="fill:none;fill-rule:evenodd;stroke:none;stroke-width:1"
     inkscape:export-filename="G:\Users\suitedoalex\sites\udemy-logo-5.png">
    <g
       id="logo-coral">
      <g
         id="Page-1">
        <path
           d="m 529.90695,140.22167 h 16.49748 l 28.5436,-72.335318 H 558.61837 L 546.82,103.91282 534.39028,67.886352 h -18.22635 l 21.70273,52.249578 z M 448.02424,85.057798 V 122.13651 H 431.38025 V 67.886352 h 11.69448 l 3.47638,4.739063 c 4.52861,-3.790718 9.37423,-6.004412 14.95775,-6.004412 7.48021,0 13.16762,2.213694 16.644,7.69332 5.05606,-4.637836 10.42913,-7.69332 17.278,-7.69332 12.85061,0 20.33082,6.638418 20.33082,24.651655 V 122.13651 H 499.11769 V 93.169349 c 0,-8.321998 -3.37249,-10.74614 -8.74556,-10.74614 -3.15938,0 -5.7913,0.84179 -8.74289,2.738481 0.21311,1.896691 0.317,3.897274 0.317,6.110968 v 30.863852 h -16.644 V 93.169349 c 0,-8.321998 -3.37248,-10.74614 -8.84945,-10.74614 -3.05548,0 -5.58351,0.737898 -8.42855,2.634589 z m -58.04886,4.635172 h 21.38572 c -1.15879,-7.05665 -4.95218,-10.429136 -10.63959,-10.429136 -4.84828,0 -9.48079,2.845036 -10.74613,10.429136 z m 11.90493,33.49844 c -16.01265,0 -28.86593,-7.9011 -28.86593,-28.759377 0,-19.489032 12.43238,-27.914922 26.75879,-27.914922 17.27534,0 24.96599,12.112716 24.96599,31.180854 h -34.87034 c 1.16146,9.374235 6.95542,12.115375 14.64608,12.115375 7.43758,0 13.25552,-1.83542 17.7575,-4.86426 l -2.25898,13.20225 c -4.29686,3.3192 -9.45415,5.04008 -18.13311,5.04008 z M 339.90487,109.182 c 3.79071,0 6.63575,-0.634 9.58468,-2.84503 V 82.740212 c -2.63193,-1.582351 -5.26385,-2.317586 -9.05723,-2.317586 -8.11155,0 -12.74673,5.476962 -12.74673,14.64075 0,8.956004 4.74173,14.118624 12.21928,14.118624 z m 12.85061,8.95334 c -4.31817,3.26593 -9.26768,5.26652 -16.32699,5.26652 -14.85386,0 -25.59734,-9.16379 -25.59734,-28.021481 0,-18.751135 12.32583,-28.863268 28.12537,-28.863268 3.68683,0 7.26976,0.527451 10.53303,1.790136 V 45.280566 h 16.64666 V 122.13651 H 355.60052 Z M 240.30728,90.007309 V 49.80119 h 17.27534 v 39.89178 c 0,14.32641 6.4253,17.27534 15.27475,17.27534 9.58735,0 14.53686,-4.21428 14.53686,-17.27534 V 49.80119 h 17.38189 v 40.206119 c 0,23.703311 -10.32258,33.604991 -32.76054,33.604991 -20.85827,0 -31.7083,-8.53244 -31.7083,-33.604991 z"
           id="Fill-1"
           inkscape:connector-curvature="0"
           style="fill:#645a53" />
        <path
           d="m 196.27901,93.022035 c -0.7006,-0.562081 -1.48912,-0.940353 -2.34689,-1.102851 -5.06672,5.050739 -11.24961,10.370536 -16.7399,13.945476 -2.53336,1.68358 -5.71937,2.52537 -7.82917,2.52537 -4.85628,0 -6.96608,-4.62985 -7.60009,-11.99018 -0.84445,-9.885702 -1.41452,-21.726701 -1.41452,-40.027638 0,-18.769781 -4.25957,-31.529823 -15.60775,-32.531446 -0.4795,-0.04262 -0.96432,-0.07193 -1.47046,-0.07193 -6.96608,0 -10.3439,3.574943 -14.77661,12.621519 -3.79871,7.781228 -9.70989,19.140062 -20.68512,40.595047 -9.499439,18.511384 -20.053778,34.918298 -29.132321,46.277128 -2.528033,3.14871 -4.525952,5.31179 -6.403996,6.54251 -1.254693,0.82581 -2.458772,1.23871 -3.726784,1.23871 -3.582935,0 -6.198877,-3.02351 -7.072633,-10.06418 -0.207784,-1.67292 -0.317003,-3.57228 -0.317003,-5.71138 0,-14.51289 5.490281,-38.072341 14.987055,-72.780187 6.966077,-25.240374 4.011821,-42.48640966 -11.188346,-42.48640966 -0.02397,0 -0.04795,0 -0.07192,0 -0.03197,0 -0.06393,0 -0.09856,0 l -0.01065,0.00266389 C 61.33158,0.0442206 58.478552,1.290922 55.729415,3.4540021 53.022901,5.5851155 50.313723,10.188321 47.78569,16.376541 44.935326,23.347946 27.604046,58.111734 0.01944641,76.021078 -0.30554839,82.829985 3.549103,89.636229 11.359634,90.374127 c 7.109927,0.673965 12.158002,-2.322914 18.657898,-6.689032 -0.487493,2.171071 -0.93769,4.200957 -1.34793,6.05769 -0.484828,2.192383 -0.897731,4.083746 -1.228054,5.610156 -0.495484,2.272299 -0.809823,3.734776 -0.903059,4.139687 -0.903059,4.142352 -1.547721,8.076922 -1.965952,11.811702 -3.889282,34.76645 12.224599,51.92191 31.095609,51.92191 3.154047,0 6.278793,-0.37561 9.382226,-1.16412 20.791676,-5.27184 40.808158,-29.12167 64.500808,-84.024476 -0.35962,5.972446 -0.39692,11.550635 -0.13852,16.726577 1.56104,31.465889 14.00674,40.906719 31.59109,40.906719 13.29815,0 25.75185,-6.93944 32.08392,-15.56512 4.64582,-6.10031 6.54518,-12.83196 6.54518,-18.09049 0,-4.081078 -1.29465,-7.339018 -3.35384,-8.993295"
           id="Fill-4"
           inkscape:connector-curvature="0"
           style="fill:#ea5252" />
      </g>
    </g>
  </g>
</svg>
